<svg xmlns="http://www.w3.org/2000/svg" width="18.333" height="20" viewBox="1251 57 18.333 20"><path d="M1269.333 77c0-4.951-4.103-8.966-9.166-8.966-5.063 0-9.167 4.015-9.167 8.966h1.41c0-4.19 3.473-7.586 7.757-7.586 4.283 0 7.756 3.396 7.756 7.586h1.41Zm-9.166-10.345c2.725 0 4.936-2.16 4.936-4.828 0-2.666-2.21-4.827-4.936-4.827s-4.937 2.161-4.937 4.827c0 2.667 2.211 4.828 4.937 4.828Zm0-1.38c-1.947 0-3.526-1.543-3.526-3.448 0-1.904 1.578-3.448 3.526-3.448 1.947 0 3.526 1.544 3.526 3.448 0 1.905-1.58 3.448-3.526 3.448Z" fill-rule="evenodd" data-name="Log-in"/></svg>