<svg xmlns="http://www.w3.org/2000/svg" width="26.061" height="23.003"><g data-name="Gruppe 14" clip-path="url(&quot;#a&quot;)"><path d="M19.057 22.7c-.927.203-1.93.303-3.008.303-1.197 0-2.379-.1-3.546-.302l6.913-11.2L12.503.304A20.782 20.782 0 0 1 16.049 0c1.078 0 2.081.101 3.008.303l7.004 11.199L19.057 22.7Z" fill="#a81e1e" fill-rule="evenodd" data-name="Pfad 232"/><path d="M6.555 22.7c-.928.203-1.93.303-3.008.303-1.197 0-2.38-.1-3.547-.302l6.914-11.2L0 .304A20.782 20.782 0 0 1 3.547 0c1.077 0 2.08.101 3.008.303l7.004 11.199L6.555 22.7Z" fill="#a81e1e" fill-rule="evenodd" data-name="Pfad 233"/></g><defs><clipPath id="a"><path d="M0 0h26.061v23.003H0V0z" data-name="Rechteck 51"/></clipPath></defs></svg>