<svg xmlns="http://www.w3.org/2000/svg" width="20" height="20" viewBox="1195 57 20 20"><path d="M1203.86 57c-4.882 0-8.86 3.978-8.86 8.86 0 4.883 3.978 8.861 8.86 8.861a8.81 8.81 0 0 0 5.577-1.986l3.996 3.996a.92.92 0 0 0 1.298 0 .908.908 0 0 0 0-1.289l-3.996-3.996a8.818 8.818 0 0 0 1.986-5.585c0-4.883-3.978-8.86-8.86-8.86Zm0 1.833a7.014 7.014 0 0 1 7.028 7.028 7.014 7.014 0 0 1-7.027 7.027 7.014 7.014 0 0 1-7.028-7.027 7.014 7.014 0 0 1 7.028-7.028Z" fill-rule="evenodd" data-name="Search"/></svg>