<svg version="1.2" xmlns="http://www.w3.org/2000/svg" viewBox="0 0 25 25" width="25" height="25"><style>.a{fill:none;stroke:#000;stroke-linecap:round;stroke-linejoin:round}</style><path class="a" d="m5.3 8.2l-1.8-2.9 2.1-2.1 3 1.8q0.8-0.5 1.8-0.8l0.8-3.3h3l0.8 3.3q1 0.3 1.8 0.8l3-1.8 2.1 2.1-1.8 2.9q0.5 0.9 0.8 1.8l3.3 0.9v3l-3.3 0.8q-0.3 1-0.8 1.8l1.8 2.9-2.1 2.2-3-1.8q-0.8 0.5-1.8 0.7l-0.8 3.4h-3l-0.8-3.4q-1-0.2-1.8-0.7l-3 1.8-2.1-2.2 1.8-2.9q-0.5-0.8-0.8-1.8l-3.3-0.8v-3l3.3-0.9q0.3-0.9 0.8-1.8z"/><path class="a" d="m17.2 12.4c0 2.5-2 4.5-4.5 4.5-2.5 0-4.5-2-4.5-4.5 0-2.5 2-4.5 4.5-4.5 2.5 0 4.5 2 4.5 4.5z"/></svg>